<?xml version="1.0" encoding="UTF-8"?>
<svg width="134px" height="134px" viewBox="0 0 134 134" version="1.1" xmlns="http://www.w3.org/2000/svg" xmlns:xlink="http://www.w3.org/1999/xlink">
    <!-- Generator: Sketch 46.2 (44496) - http://www.bohemiancoding.com/sketch -->
    <title>Layer_1 Copy</title>
    <desc>Created with Sketch.</desc>
    <defs></defs>
    <g id="Page-1" stroke="none" stroke-width="1" fill="none" fill-rule="evenodd" stroke-linecap="round" opacity="0.45" stroke-linejoin="round">
        <g id="V2-Desktop---CH" transform="translate(-1224.000000, -1404.000000)" stroke="#C3A767">
            <g id="Right-content" transform="translate(572.000000, -3.000000)">
                <g id="Why-Us" transform="translate(-6.000000, 1257.000000)">
                    <g id="Layer_1-Copy" transform="translate(658.000000, 150.000000)">
                        <g id="Group">
                            <path d="M77.847619,35.0461538 C59.4066667,35.0461538 44.22,19.6533333 44.22,0.962051282 C44.22,19.6533333 30.1180952,35.0461538 11.6771429,35.0461538 C30.1180952,35.0461538 45.3047619,50.4389744 45.3047619,69.1302564 C44.22,49.3394872 59.4066667,35.0461538 77.847619,35.0461538 L77.847619,35.0461538 Z" id="Shape"></path>
                            <path d="M133.170476,91.12 C114.729524,91.12 99.5428571,75.7271795 99.5428571,57.0358974 C99.5428571,75.7271795 84.3561905,91.12 65.9152381,91.12 C84.3561905,91.12 99.5428571,106.512821 99.5428571,125.204103 C100.627619,106.512821 114.729524,91.12 133.170476,91.12 L133.170476,91.12 Z" id="Shape"></path>
                            <path d="M47.4742857,110.910769 C34.4571429,110.910769 23.6095238,101.015385 23.6095238,87.8215385 C23.6095238,101.015385 12.7619048,110.910769 0.82952381,110.910769 C13.8466667,110.910769 23.6095238,121.905641 23.6095238,134 C23.6095238,121.905641 34.4571429,110.910769 47.4742857,110.910769 L47.4742857,110.910769 Z" id="Shape"></path>
                        </g>
                    </g>
                </g>
            </g>
        </g>
    </g>
</svg>